<svg xmlns="http://www.w3.org/2000/svg" xmlns:xlink="http://www.w3.org/1999/xlink" contentStyleType="text/css" data-diagram-type="DESCRIPTION" height="541px" preserveAspectRatio="none" style="width:663px;height:541px;background:#FDFDFD;" version="1.1" viewBox="0 0 663 541" width="663px" zoomAndPan="magnify"><defs/><g><rect fill="#FDFDFD" height="541" style="stroke:none;stroke-width:1;" width="663" x="0" y="0"/><!--cluster  Connector Module --><g class="cluster" data-entity=" Connector Module " data-source-line="4" data-uid="ent0002" id="cluster_ Connector Module "><path d="M8.5,92.4284 L150.1563,92.4284 A3.75,3.75 0 0 1 152.6563,94.9284 L159.6563,114.9166 L315.5,114.9166 A2.5,2.5 0 0 1 318,117.4166 L318,429.8684 A2.5,2.5 0 0 1 315.5,432.3684 L8.5,432.3684 A2.5,2.5 0 0 1 6,429.8684 L6,94.9284 A2.5,2.5 0 0 1 8.5,92.4284" fill="none" style="stroke:#000000;stroke-width:1.5;"/><line style="stroke:#000000;stroke-width:1.5;" x1="6" x2="159.6563" y1="114.9166" y2="114.9166"/><text fill="#000000" font-family="sans-serif" font-size="14" font-weight="bold" lengthAdjust="spacing" textLength="131.4277" x="14.6143" y="107.9635">Connector Module</text></g><!--entity auth--><g class="entity" data-entity="auth" data-source-line="5" data-uid="ent0003" id="entity_auth"><rect fill="#E0F2F1" height="46.4883" rx="2.5" ry="2.5" style="stroke:#181818;stroke-width:0.5;" width="132.9756" x="21.51" y="246.2984"/><rect fill="#E0F2F1" height="10" style="stroke:#181818;stroke-width:0.5;" width="15" x="134.4856" y="251.2984"/><rect fill="#E0F2F1" height="2" style="stroke:#181818;stroke-width:0.5;" width="4" x="132.4856" y="253.2984"/><rect fill="#E0F2F1" height="2" style="stroke:#181818;stroke-width:0.5;" width="4" x="132.4856" y="257.2984"/><text fill="#000000" font-family="sans-serif" font-size="14" lengthAdjust="spacing" textLength="92.9756" x="36.51" y="279.8335">Authorization</text></g><!--entity service--><g class="entity" data-entity="service" data-source-line="6" data-uid="ent0004" id="entity_service"><rect fill="#E3F2FD" height="46.4883" rx="2.5" ry="2.5" style="stroke:#181818;stroke-width:0.5;" width="87.332" x="123.33" y="127.4284"/><rect fill="#E3F2FD" height="10" style="stroke:#181818;stroke-width:0.5;" width="15" x="190.662" y="132.4284"/><rect fill="#E3F2FD" height="2" style="stroke:#181818;stroke-width:0.5;" width="4" x="188.662" y="134.4284"/><rect fill="#E3F2FD" height="2" style="stroke:#181818;stroke-width:0.5;" width="4" x="188.662" y="138.4284"/><text fill="#000000" font-family="sans-serif" font-size="14" lengthAdjust="spacing" textLength="47.332" x="138.33" y="160.9635">Service</text></g><!--entity dispatcher--><g class="entity" data-entity="dispatcher" data-source-line="7" data-uid="ent0005" id="entity_dispatcher"><rect fill="#E8F5E8" height="46.4883" rx="2.5" ry="2.5" style="stroke:#181818;stroke-width:0.5;" width="112.8369" x="189.58" y="246.2984"/><rect fill="#E8F5E8" height="10" style="stroke:#181818;stroke-width:0.5;" width="15" x="282.4169" y="251.2984"/><rect fill="#E8F5E8" height="2" style="stroke:#181818;stroke-width:0.5;" width="4" x="280.4169" y="253.2984"/><rect fill="#E8F5E8" height="2" style="stroke:#181818;stroke-width:0.5;" width="4" x="280.4169" y="257.2984"/><text fill="#000000" font-family="sans-serif" font-size="14" lengthAdjust="spacing" textLength="72.8369" x="204.58" y="279.8335">Dispatcher</text></g><!--entity postproc--><g class="entity" data-entity="postproc" data-source-line="8" data-uid="ent0006" id="entity_postproc"><rect fill="#FFF3E0" height="46.4883" rx="2.5" ry="2.5" style="stroke:#181818;stroke-width:0.5;" width="138.7793" x="163.61" y="369.8784"/><rect fill="#FFF3E0" height="10" style="stroke:#181818;stroke-width:0.5;" width="15" x="282.3893" y="374.8784"/><rect fill="#FFF3E0" height="2" style="stroke:#181818;stroke-width:0.5;" width="4" x="280.3893" y="376.8784"/><rect fill="#FFF3E0" height="2" style="stroke:#181818;stroke-width:0.5;" width="4" x="280.3893" y="380.8784"/><text fill="#000000" font-family="sans-serif" font-size="14" lengthAdjust="spacing" textLength="98.7793" x="178.61" y="403.4135">Post Processor</text></g><!--entity config--><g class="entity" data-entity="config" data-source-line="11" data-uid="ent0007" id="entity_config"><path d="M111.6419,13.2797 C114.8319,8.1954 119.0164,7.9299 122.9674,12.3755 C126.7971,7.2473 129.941,8.4936 132.9249,13.2293 C136.531,6 140.7453,6.7542 145.9099,11.5458 C149.6823,6.6923 153.7323,7.7527 156.0195,13.0281 C159.3337,7.6493 165.6832,7.3314 169.0909,12.9165 C172.5566,7.4701 176.5043,7.4171 180.1679,12.7124 C183.6019,6.9809 189.0711,8.1448 192.1165,13.1451 C194.532,8.2965 199.9783,8.0428 203.086,12.3124 C207.3241,7.3697 210.7815,7.7657 214.1845,13.205 C217.3846,7.001 222.8917,7.3826 225.8547,13.4309 C232.1227,16.2528 231.5191,20.213 227.5515,24.5911 C233.9845,28.0007 233.9758,32.4382 228.2823,36.5865 C233.2449,41.1117 231.7015,44.9603 226.3918,47.7451 C232.9198,51.6915 231.709,57.6736 225.9816,61.2476 C222.984,67.2133 218.5333,67.8973 214.786,61.9522 C211.7527,69.2623 205.9331,68.5397 201.7981,63.0721 C199.8826,67.8816 194.822,68.8839 191.4423,64.7716 C187.0678,71.3355 182.6984,71.5022 178.7228,64.4004 C177.059,69.7099 172.7132,71.6036 168.3694,67.2811 C162.8524,72.9933 158.545,72.1401 155.5798,64.7838 C152.6273,68.7663 148.2775,69.3034 145.8432,64.2268 C141.4579,69.4505 135.7263,68.9173 133.1371,62.2994 C128.9728,66.6919 124.7622,66.463 121.923,60.8188 C118.1339,65.9582 112.2889,66.0605 109.6382,59.6119 C103.2564,58.432 102.1238,53.406 106.826,49.2251 C101.7397,46.2665 100.6613,42.0992 105.2583,37.8107 C100.7591,33.394 101.8461,28.2822 107.5254,25.7842 C102.3559,20.5401 103.7499,14.224 111.6419,13.2797" fill="#F5F5F5" style="stroke:#181818;stroke-width:0.5;"/><text fill="#000000" font-family="sans-serif" font-size="14" lengthAdjust="spacing" textLength="33.5713" x="116.62" y="32.9835">Yaml</text><text fill="#000000" font-family="sans-serif" font-size="14" lengthAdjust="spacing" textLength="100.7549" x="116.62" y="49.4718">Configurations</text></g><!--entity apis--><g class="entity" data-entity="apis" data-source-line="12" data-uid="ent0008" id="entity_apis"><path d="M343.0359,136.7403 C346.3994,131.546 351.5976,131.4229 354.7259,136.9956 C356.8407,131.4023 361.8341,130.748 365.6337,135.1585 C369.8465,129.32 373.899,128.7509 377.7685,135.4897 C380.562,128.9176 386.5018,129.1061 390.4183,134.2803 C393.4383,129.379 398.1532,129.1722 400.6793,134.7633 C404.6986,128.8355 409.0762,128.2202 413.1317,134.7271 C415.163,128.6585 421.066,127.8403 425.0148,132.6283 C429.3022,127.4284 433.5272,126.9121 437.494,132.9833 C441.2845,128.2923 444.9974,128.5164 448.0872,133.7326 C452.6571,128.7087 457.1687,127.218 460.9459,134.5572 C465.3683,128.664 469.9809,129.6556 473.0133,135.9352 C476.3078,130.6765 481.9166,131.6085 484.5054,136.7173 C487.3733,131.3218 492.3628,130.652 495.8546,136.062 C498.705,131.1527 503.9341,131.1104 507.0071,135.8034 C517.8811,135.7717 521.9372,144.0974 515.587,152.7739 C519.5081,160.8878 516.3417,167.2485 506.7301,166.8434 C503.5173,172.2185 499.5428,172.2003 496.2991,166.8736 C493.2088,173.2278 488.7891,172.7898 484.8712,167.7 C481.5584,174.6251 475.6527,174.2236 471.3059,168.8395 C467.8946,173.3273 462.0545,174.0107 459.5198,167.8676 C456.2878,172.8691 453.2667,172.9688 449.5193,168.4065 C446.0025,174.0353 439.9774,174.3591 435.972,169.0094 C432.3805,174.5771 428.2988,174.7012 424.1626,169.6129 C420.2529,175.0171 416.1927,175.0416 412.4903,169.394 C408.0425,174.7874 404.1775,174.9223 400.674,168.4534 C397.9727,173.8343 393.0557,172.8587 390.634,168.1744 C387.4226,173.9344 381.2438,173.4047 378.0448,168.1603 C375.4246,172.7967 369.9021,174.155 366.8207,168.6719 C363.7708,174.7872 358.0534,173.9322 355.2273,168.4482 C350.4946,174.4707 345.9324,174.043 342.4898,167.1735 C334.4353,164.4575 330.8577,159.2404 337.6467,151.837 C332.7538,144.329 333.9537,139.2594 343.0359,136.7403" fill="#F0F4F8" style="stroke:#181818;stroke-width:0.5;"/><text fill="#000000" font-family="sans-serif" font-size="14" lengthAdjust="spacing" textLength="150.2129" x="348.89" y="155.9635">External APIs/Services</text></g><!--entity output--><g class="entity" data-entity="output" data-source-line="13" data-uid="ent0009" id="entity_output"><polygon fill="#E1F5FE" points="152.04,481.0884,303.9589,481.0884,313.9589,507.5766,303.9589,534.0649,152.04,534.0649,162.04,507.5766" style="stroke:#181818;stroke-width:0.5;"/><text fill="#000000" font-family="sans-serif" font-size="14" lengthAdjust="spacing" textLength="73.1582" x="172.04" y="504.6235">Forward to</text><text fill="#000000" font-family="sans-serif" font-size="14" lengthAdjust="spacing" textLength="121.9189" x="172.04" y="521.1118">downstream node</text></g><g class="entity" data-entity="GMN16" data-source-line="24" data-uid="ent0017" id="entity_GMN16"><path d="M337.1,233.9184 L337.1,265.0684 L302.64,269.0684 L337.1,273.0684 L337.1,305.1605 A0,0 0 0 0 337.1,305.1605 L656.9032,305.1605 A0,0 0 0 0 656.9032,305.1605 L656.9032,243.9184 L646.9032,233.9184 L337.1,233.9184 A0,0 0 0 0 337.1,233.9184" fill="#F1F8E9" style="stroke:#181818;stroke-width:0.5;"/><path d="M646.9032,233.9184 L646.9032,243.9184 L656.9032,243.9184 L646.9032,233.9184" fill="#F1F8E9" style="stroke:#181818;stroke-width:0.5;"/><text fill="#000000" font-family="sans-serif" font-size="13" lengthAdjust="spacing" textLength="252.624" x="343.1" y="251.4867">&#127760; Interacts with external APIs/Services:</text><text fill="#000000" font-family="sans-serif" font-size="13" lengthAdjust="spacing" textLength="278.5479" x="351.3266" y="266.7973">- Database APIs (e.g. for internal databases)</text><text fill="#000000" font-family="sans-serif" font-size="13" lengthAdjust="spacing" textLength="284.0957" x="351.3266" y="282.1078">- Third-party APIs (e.g. for external services)</text><text fill="#000000" font-family="sans-serif" font-size="13" lengthAdjust="spacing" textLength="290.5767" x="351.3266" y="297.4184">- Custom REST APIs (e.g. for internal services)</text></g><g class="entity" data-entity="GMN19" data-source-line="31" data-uid="ent0020" id="entity_GMN19"><path d="M337.22,365.1584 L337.22,389.0684 L302.69,393.0684 L337.22,397.0684 L337.22,421.09 A0,0 0 0 0 337.22,421.09 L626.7893,421.09 A0,0 0 0 0 626.7893,421.09 L626.7893,375.1584 L616.7893,365.1584 L337.22,365.1584 A0,0 0 0 0 337.22,365.1584" fill="#FFF8E1" style="stroke:#181818;stroke-width:0.5;"/><path d="M616.7893,365.1584 L616.7893,375.1584 L626.7893,375.1584 L616.7893,365.1584" fill="#FFF8E1" style="stroke:#181818;stroke-width:0.5;"/><text fill="#000000" font-family="sans-serif" font-size="13" lengthAdjust="spacing" textLength="268.5693" x="343.22" y="382.7267">&#9881;&#65039; Post Processor applies steps (optional):</text><text fill="#000000" font-family="sans-serif" font-size="13" lengthAdjust="spacing" textLength="206.7178" x="359.6731" y="398.0373">- pre-transformation processing</text><text fill="#000000" font-family="sans-serif" font-size="13" lengthAdjust="spacing" textLength="137.4014" x="359.6731" y="413.3478">- Response validation</text></g><!--link config to service--><g class="link" data-entity-1="config" data-entity-2="service" data-source-line="16" data-uid="lnk10" id="link_config_service"><path d="M167,67.8984 C167,86.7284 167,104.1384 167,121.2484" fill="none" id="config-to-service" style="stroke:#181818;stroke-width:1;"/><polygon fill="#181818" points="167,127.2484,171,118.2484,167,122.2484,163,118.2484,167,127.2484" style="stroke:#181818;stroke-width:1;"/></g><!--link service to auth--><g class="link" data-entity-1="service" data-entity-2="auth" data-source-line="17" data-uid="lnk11" id="link_service_auth"><path d="M138.91,180.1584 C138.91,200.9984 138.91,219.2784 138.91,240.1084" fill="none" id="service-auth" style="stroke:#181818;stroke-width:1;"/><polygon fill="#181818" points="138.91,174.1584,134.91,183.1584,138.91,179.1584,142.91,183.1584,138.91,174.1584" style="stroke:#181818;stroke-width:1;"/><polygon fill="#181818" points="138.91,246.1084,142.91,237.1084,138.91,241.1084,134.91,237.1084,138.91,246.1084" style="stroke:#181818;stroke-width:1;"/></g><!--link service to dispatcher--><g class="link" data-entity-1="service" data-entity-2="dispatcher" data-source-line="18" data-uid="lnk12" id="link_service_dispatcher"><path d="M200.12,174.1584 C200.12,194.9984 200.12,219.2784 200.12,240.1084" fill="none" id="service-to-dispatcher" style="stroke:#181818;stroke-width:1;"/><polygon fill="#181818" points="200.12,246.1084,204.12,237.1084,200.12,241.1084,196.12,237.1084,200.12,246.1084" style="stroke:#181818;stroke-width:1;"/></g><!--link apis to dispatcher--><g class="link" data-entity-1="apis" data-entity-2="dispatcher" data-source-line="19" data-uid="lnk13" id="link_apis_dispatcher"><path d="M327.81,151.0684 C293,151.0684 267.4,151.0684 267.4,151.0684 C267.4,151.0684 267.4,205.2784 267.4,239.8484" fill="none" id="apis-dispatcher" style="stroke:#181818;stroke-width:1;"/><polygon fill="#181818" points="333.81,151.0684,324.81,147.0684,328.81,151.0684,324.81,155.0684,333.81,151.0684" style="stroke:#181818;stroke-width:1;"/><polygon fill="#181818" points="267.4,245.8484,271.4,236.8484,267.4,240.8484,263.4,236.8484,267.4,245.8484" style="stroke:#181818;stroke-width:1;"/></g><!--link dispatcher to postproc--><g class="link" data-entity-1="dispatcher" data-entity-2="postproc" data-source-line="20" data-uid="lnk14" id="link_dispatcher_postproc"><path d="M245.99,293.0784 C245.99,315.0684 245.99,341.7184 245.99,363.6784" fill="none" id="dispatcher-to-postproc" style="stroke:#181818;stroke-width:1;"/><polygon fill="#181818" points="245.99,369.6784,249.99,360.6784,245.99,364.6784,241.99,360.6784,245.99,369.6784" style="stroke:#181818;stroke-width:1;"/></g><!--link postproc to output--><g class="link" data-entity-1="postproc" data-entity-2="output" data-source-line="21" data-uid="lnk15" id="link_postproc_output"><path d="M233,416.8384 C233,435.4384 233,455.3184 233,474.6884" fill="none" id="postproc-to-output" style="stroke:#181818;stroke-width:1;"/><polygon fill="#181818" points="233,480.6884,237,471.6884,233,475.6884,229,471.6884,233,480.6884" style="stroke:#181818;stroke-width:1;"/></g><!--SRC=[TLB1RXCn4BtxAqRfXHws99HAeQgGgcGjzO0KjRqWoi5TJpPMDnxBzZOKn1yWmHKk_4Q_fpy0dy3Okqb81ElBxfltTcQUNxWprYclbj0OY_718P2F2n9XKxXLrLtjgRLwGWrvE93JT8HmN50rmW0cP2rMaOjlIBTDWZu9uEVTUSi_y-QZYeRiUr0152DmK0xb2pdgE5Vexqs5kHgwToOSCs7Q4QOcE1Mh1VhCqPjFfetbIJdkQ3CA4MQUAWo1EgfZo372GqjvN0x5Po6gXbeDWxTgsTnOddnkwjRd-S8WQQeCiU8adJMz_13HMzN0-UmYFEz7xWJAcS3qeNmfny9r_M4WoQ-Krn3fncfQsH0zifkMD6OLjT6raJSOSPjIy5nTtw9ulNP1hDquIs0oReCaOEk3o2ESxO5_-PGgQo_4nfI4TcC8OIaYU5Cl8j1yns8vakFobVZzyyitkB3iWgfYW9NXQyH_cdBArr70L4LrgmBc6Zp3e_e8vfmGOtkDxWdXCFEl5yRhWYCN7_ObcpRzzhrYqeP8IxWihwx_ssIhGAiXBRc_wav4nkL8FFtu_klnA-ocYI_PDGOve14TToAN0gEQmzESlGASno9wPGEtN-OqGHy5O-kUSud1SSeGxbLZT2Pjn_e3]--></g></svg>