<svg xmlns="http://www.w3.org/2000/svg" xmlns:xlink="http://www.w3.org/1999/xlink" contentStyleType="text/css" data-diagram-type="SEQUENCE" height="869px" preserveAspectRatio="none" style="width:1281px;height:869px;background:#FFFFFF;" version="1.1" viewBox="0 0 1281 869" width="1281px" zoomAndPan="magnify"><defs/><g><g><title>CLI</title><rect fill="#81D4FA" height="657.2793" style="stroke:#BDC3C7;stroke-width:1;" width="10" x="209.6548" y="112.7988"/></g><g><title>Pipeline</title><rect fill="#FFE082" height="540.0371" style="stroke:#BDC3C7;stroke-width:1;" width="10" x="468.5469" y="200.7305"/></g><g><title>Pipeline</title><rect fill="#F4D03F" height="28" style="stroke:#BDC3C7;stroke-width:1;" width="10" x="473.5469" y="337.9727"/></g><g><title>Pipeline</title><rect fill="#F4D03F" height="28" style="stroke:#BDC3C7;stroke-width:1;" width="10" x="473.5469" y="474.9043"/></g><g><title>Pipeline</title><rect fill="#F4D03F" height="28" style="stroke:#BDC3C7;stroke-width:1;" width="10" x="473.5469" y="611.8359"/></g><g><title>Config Reader</title><rect fill="#A5D6A7" height="29.3105" style="stroke:#BDC3C7;stroke-width:1;" width="10" x="721.5801" y="142.1094"/></g><g><title>Connector</title><rect fill="#FFAB91" height="32.3105" style="stroke:#BDC3C7;stroke-width:1;" width="10" x="833.6748" y="268.3516"/></g><g><title>Dispatcher</title><rect fill="#A5D6A7" height="32.3105" style="stroke:#BDC3C7;stroke-width:1;" width="10" x="933.6255" y="405.2832"/></g><g><title>Serializer</title><rect fill="#CE93D8" height="32.3105" style="stroke:#BDC3C7;stroke-width:1;" width="10" x="1030.2539" y="542.2148"/></g><g><title>Exporter</title><rect fill="#FFCC80" height="32.3105" style="stroke:#BDC3C7;stroke-width:1;" width="10" x="1118.6519" y="679.1465"/></g><g><title>User</title><rect fill="#000000" fill-opacity="0.00000" height="706.5898" width="8" x="20.396" y="81.4883"/><line style="stroke:#BDC3C7;stroke-width:0.5;stroke-dasharray:5.0,5.0;" x1="24" x2="24" y1="81.4883" y2="788.0781"/></g><g><title>CLI</title><rect fill="#000000" fill-opacity="0.00000" height="706.5898" width="8" x="210.6548" y="81.4883"/><line style="stroke:#BDC3C7;stroke-width:0.5;stroke-dasharray:5.0,5.0;" x1="214.2764" x2="214.2764" y1="81.4883" y2="788.0781"/></g><g><title>Pipeline</title><rect fill="#000000" fill-opacity="0.00000" height="706.5898" width="8" x="469.5469" y="81.4883"/><line style="stroke:#BDC3C7;stroke-width:0.5;stroke-dasharray:5.0,5.0;" x1="472.9863" x2="472.9863" y1="81.4883" y2="788.0781"/></g><g><title>Config Reader</title><rect fill="#000000" fill-opacity="0.00000" height="706.5898" width="8" x="722.5801" y="81.4883"/><line style="stroke:#BDC3C7;stroke-width:0.5;stroke-dasharray:5.0,5.0;" x1="726.4541" x2="726.4541" y1="81.4883" y2="788.0781"/></g><g><title>Connector</title><rect fill="#000000" fill-opacity="0.00000" height="706.5898" width="8" x="834.6748" y="81.4883"/><line style="stroke:#BDC3C7;stroke-width:0.5;stroke-dasharray:5.0,5.0;" x1="837.7061" x2="837.7061" y1="81.4883" y2="788.0781"/></g><g><title>Dispatcher</title><rect fill="#000000" fill-opacity="0.00000" height="706.5898" width="8" x="934.6255" y="81.4883"/><line style="stroke:#BDC3C7;stroke-width:0.5;stroke-dasharray:5.0,5.0;" x1="937.6436" x2="937.6436" y1="81.4883" y2="788.0781"/></g><g><title>Serializer</title><rect fill="#000000" fill-opacity="0.00000" height="706.5898" width="8" x="1031.2539" y="81.4883"/><line style="stroke:#BDC3C7;stroke-width:0.5;stroke-dasharray:5.0,5.0;" x1="1034.6074" x2="1034.6074" y1="81.4883" y2="788.0781"/></g><g><title>Exporter</title><rect fill="#000000" fill-opacity="0.00000" height="706.5898" width="8" x="1119.6519" y="81.4883"/><line style="stroke:#BDC3C7;stroke-width:0.5;stroke-dasharray:5.0,5.0;" x1="1122.9004" x2="1122.9004" y1="81.4883" y2="788.0781"/></g><g class="participant participant-head" data-participant="User"><text fill="#000000" font-family="sans-serif" font-size="14" font-weight="bold" lengthAdjust="spacing" textLength="32.792" x="5" y="78.5352">User</text><ellipse cx="24.396" cy="13.5" fill="#E8F4FD" rx="8" ry="8" style="stroke:#2C3E50;stroke-width:0.5;"/><path d="M24.396,21.5 L24.396,48.5 M11.396,29.5 L37.396,29.5 M24.396,48.5 L11.396,63.5 M24.396,48.5 L37.396,63.5" fill="none" style="stroke:#2C3E50;stroke-width:0.5;"/></g><g class="participant participant-tail" data-participant="User"><text fill="#000000" font-family="sans-serif" font-size="14" font-weight="bold" lengthAdjust="spacing" textLength="32.792" x="5" y="800.6133">User</text><ellipse cx="24.396" cy="812.0664" fill="#E8F4FD" rx="8" ry="8" style="stroke:#2C3E50;stroke-width:0.5;"/><path d="M24.396,820.0664 L24.396,847.0664 M11.396,828.0664 L37.396,828.0664 M24.396,847.0664 L11.396,862.0664 M24.396,847.0664 L37.396,862.0664" fill="none" style="stroke:#2C3E50;stroke-width:0.5;"/></g><g class="participant participant-head" data-participant="CLI"><rect fill="#E1F5FE" height="30.4883" rx="2.5" ry="2.5" style="stroke:#34495E;stroke-width:0.5;" width="36.7568" x="196.2764" y="50"/><text fill="#000000" font-family="sans-serif" font-size="14" font-weight="bold" lengthAdjust="spacing" textLength="22.7568" x="203.2764" y="70.5352">CLI</text></g><g class="participant participant-tail" data-participant="CLI"><rect fill="#E1F5FE" height="30.4883" rx="2.5" ry="2.5" style="stroke:#34495E;stroke-width:0.5;" width="36.7568" x="196.2764" y="787.0781"/><text fill="#000000" font-family="sans-serif" font-size="14" font-weight="bold" lengthAdjust="spacing" textLength="22.7568" x="203.2764" y="807.6133">CLI</text></g><g class="participant participant-head" data-participant="Pipeline"><rect fill="#FFF2CC" height="30.4883" rx="2.5" ry="2.5" style="stroke:#34495E;stroke-width:0.5;" width="71.1211" x="437.9863" y="50"/><text fill="#000000" font-family="sans-serif" font-size="14" font-weight="bold" lengthAdjust="spacing" textLength="57.1211" x="444.9863" y="70.5352">Pipeline</text></g><g class="participant participant-tail" data-participant="Pipeline"><rect fill="#FFF2CC" height="30.4883" rx="2.5" ry="2.5" style="stroke:#34495E;stroke-width:0.5;" width="71.1211" x="437.9863" y="787.0781"/><text fill="#000000" font-family="sans-serif" font-size="14" font-weight="bold" lengthAdjust="spacing" textLength="57.1211" x="444.9863" y="807.6133">Pipeline</text></g><g class="participant participant-head" data-participant="Config"><rect fill="#E8F5E8" height="30.4883" rx="2.5" ry="2.5" style="stroke:#34495E;stroke-width:0.5;" width="116.252" x="668.4541" y="50"/><text fill="#000000" font-family="sans-serif" font-size="14" font-weight="bold" lengthAdjust="spacing" textLength="102.252" x="675.4541" y="70.5352">Config Reader</text></g><g class="participant participant-tail" data-participant="Config"><rect fill="#E8F5E8" height="30.4883" rx="2.5" ry="2.5" style="stroke:#34495E;stroke-width:0.5;" width="116.252" x="668.4541" y="787.0781"/><text fill="#000000" font-family="sans-serif" font-size="14" font-weight="bold" lengthAdjust="spacing" textLength="102.252" x="675.4541" y="807.6133">Config Reader</text></g><g class="participant participant-head" data-participant="Connector"><rect fill="#FFE0E6" height="30.4883" rx="2.5" ry="2.5" style="stroke:#34495E;stroke-width:0.5;" width="87.9375" x="794.7061" y="50"/><text fill="#000000" font-family="sans-serif" font-size="14" font-weight="bold" lengthAdjust="spacing" textLength="73.9375" x="801.7061" y="70.5352">Connector</text></g><g class="participant participant-tail" data-participant="Connector"><rect fill="#FFE0E6" height="30.4883" rx="2.5" ry="2.5" style="stroke:#34495E;stroke-width:0.5;" width="87.9375" x="794.7061" y="787.0781"/><text fill="#000000" font-family="sans-serif" font-size="14" font-weight="bold" lengthAdjust="spacing" textLength="73.9375" x="801.7061" y="807.6133">Connector</text></g><g class="participant participant-head" data-participant="Dispatcher"><rect fill="#E8F5E8" height="30.4883" rx="2.5" ry="2.5" style="stroke:#34495E;stroke-width:0.5;" width="91.9639" x="892.6436" y="50"/><text fill="#000000" font-family="sans-serif" font-size="14" font-weight="bold" lengthAdjust="spacing" textLength="77.9639" x="899.6436" y="70.5352">Dispatcher</text></g><g class="participant participant-tail" data-participant="Dispatcher"><rect fill="#E8F5E8" height="30.4883" rx="2.5" ry="2.5" style="stroke:#34495E;stroke-width:0.5;" width="91.9639" x="892.6436" y="787.0781"/><text fill="#000000" font-family="sans-serif" font-size="14" font-weight="bold" lengthAdjust="spacing" textLength="77.9639" x="899.6436" y="807.6133">Dispatcher</text></g><g class="participant participant-head" data-participant="Serializer"><rect fill="#F3E5F5" height="30.4883" rx="2.5" ry="2.5" style="stroke:#34495E;stroke-width:0.5;" width="81.293" x="994.6074" y="50"/><text fill="#000000" font-family="sans-serif" font-size="14" font-weight="bold" lengthAdjust="spacing" textLength="67.293" x="1001.6074" y="70.5352">Serializer</text></g><g class="participant participant-tail" data-participant="Serializer"><rect fill="#F3E5F5" height="30.4883" rx="2.5" ry="2.5" style="stroke:#34495E;stroke-width:0.5;" width="81.293" x="994.6074" y="787.0781"/><text fill="#000000" font-family="sans-serif" font-size="14" font-weight="bold" lengthAdjust="spacing" textLength="67.293" x="1001.6074" y="807.6133">Serializer</text></g><g class="participant participant-head" data-participant="Exporter"><rect fill="#FFF3E0" height="30.4883" rx="2.5" ry="2.5" style="stroke:#34495E;stroke-width:0.5;" width="75.5029" x="1085.9004" y="50"/><text fill="#000000" font-family="sans-serif" font-size="14" font-weight="bold" lengthAdjust="spacing" textLength="61.5029" x="1092.9004" y="70.5352">Exporter</text></g><g class="participant participant-tail" data-participant="Exporter"><rect fill="#FFF3E0" height="30.4883" rx="2.5" ry="2.5" style="stroke:#34495E;stroke-width:0.5;" width="75.5029" x="1085.9004" y="787.0781"/><text fill="#000000" font-family="sans-serif" font-size="14" font-weight="bold" lengthAdjust="spacing" textLength="61.5029" x="1092.9004" y="807.6133">Exporter</text></g><g><title>CLI</title><rect fill="#81D4FA" height="657.2793" style="stroke:#BDC3C7;stroke-width:1;" width="10" x="209.6548" y="112.7988"/></g><g><title>Pipeline</title><rect fill="#FFE082" height="540.0371" style="stroke:#BDC3C7;stroke-width:1;" width="10" x="468.5469" y="200.7305"/></g><g><title>Pipeline</title><rect fill="#F4D03F" height="28" style="stroke:#BDC3C7;stroke-width:1;" width="10" x="473.5469" y="337.9727"/></g><g><title>Pipeline</title><rect fill="#F4D03F" height="28" style="stroke:#BDC3C7;stroke-width:1;" width="10" x="473.5469" y="474.9043"/></g><g><title>Pipeline</title><rect fill="#F4D03F" height="28" style="stroke:#BDC3C7;stroke-width:1;" width="10" x="473.5469" y="611.8359"/></g><g><title>Config Reader</title><rect fill="#A5D6A7" height="29.3105" style="stroke:#BDC3C7;stroke-width:1;" width="10" x="721.5801" y="142.1094"/></g><g><title>Connector</title><rect fill="#FFAB91" height="32.3105" style="stroke:#BDC3C7;stroke-width:1;" width="10" x="833.6748" y="268.3516"/></g><g><title>Dispatcher</title><rect fill="#A5D6A7" height="32.3105" style="stroke:#BDC3C7;stroke-width:1;" width="10" x="933.6255" y="405.2832"/></g><g><title>Serializer</title><rect fill="#CE93D8" height="32.3105" style="stroke:#BDC3C7;stroke-width:1;" width="10" x="1030.2539" y="542.2148"/></g><g><title>Exporter</title><rect fill="#FFCC80" height="32.3105" style="stroke:#BDC3C7;stroke-width:1;" width="10" x="1118.6519" y="679.1465"/></g><g class="message" data-participant-1="User" data-participant-2="CLI"><polygon fill="#4A90E2" points="197.6548,108.7988,207.6548,112.7988,197.6548,116.7988,201.6548,112.7988" style="stroke:#4A90E2;stroke-width:1;"/><line style="stroke:#4A90E2;stroke-width:1;" x1="24.396" x2="203.6548" y1="112.7988" y2="112.7988"/><text fill="#000000" font-family="sans-serif" font-size="13" font-weight="bold" lengthAdjust="spacing" textLength="35.3628" x="33.896" y="108.0566">[001]</text><text fill="#000000" font-family="sans-serif" font-size="13" lengthAdjust="spacing" textLength="126.896" x="73.2588" y="108.0566">Run with arguments</text></g><g class="message" data-participant-1="CLI" data-participant-2="Config"><polygon fill="#4A90E2" points="709.5801,138.1094,719.5801,142.1094,709.5801,146.1094,713.5801,142.1094" style="stroke:#4A90E2;stroke-width:1;"/><line style="stroke:#4A90E2;stroke-width:1;" x1="219.6548" x2="715.5801" y1="142.1094" y2="142.1094"/><text fill="#000000" font-family="sans-serif" font-size="13" font-weight="bold" lengthAdjust="spacing" textLength="35.3628" x="386.9104" y="137.3672">[002]</text><text fill="#000000" font-family="sans-serif" font-size="13" lengthAdjust="spacing" textLength="128.0513" x="426.2732" y="137.3672">Load pipeline config</text></g><g class="message" data-participant-1="Config" data-participant-2="CLI"><polygon fill="#4A90E2" points="230.6548,167.4199,220.6548,171.4199,230.6548,175.4199,226.6548,171.4199" style="stroke:#4A90E2;stroke-width:1;"/><line style="stroke:#4A90E2;stroke-width:1;stroke-dasharray:2.0,2.0;" x1="224.6548" x2="725.5801" y1="171.4199" y2="171.4199"/><text fill="#000000" font-family="sans-serif" font-size="13" font-weight="bold" lengthAdjust="spacing" textLength="35.3628" x="410.8115" y="166.6777">[003]</text><text fill="#000000" font-family="sans-serif" font-size="13" lengthAdjust="spacing" textLength="85.249" x="450.1743" y="166.6777">Return config</text></g><g class="message" data-participant-1="CLI" data-participant-2="Pipeline"><polygon fill="#4A90E2" points="456.5469,196.7305,466.5469,200.7305,456.5469,204.7305,460.5469,200.7305" style="stroke:#4A90E2;stroke-width:1;"/><line style="stroke:#4A90E2;stroke-width:1;" x1="219.6548" x2="462.5469" y1="200.7305" y2="200.7305"/><text fill="#000000" font-family="sans-serif" font-size="13" font-weight="bold" lengthAdjust="spacing" textLength="35.3628" x="248.5586" y="195.9883">[004]</text><text fill="#000000" font-family="sans-serif" font-size="13" lengthAdjust="spacing" textLength="151.7217" x="287.9214" y="195.9883">Create pipeline instance</text></g><g class="message" data-participant-1="CLI" data-participant-2="Pipeline"><polygon fill="#4A90E2" points="456.5469,229.041,466.5469,233.041,456.5469,237.041,460.5469,233.041" style="stroke:#4A90E2;stroke-width:1;"/><line style="stroke:#4A90E2;stroke-width:1;" x1="219.6548" x2="462.5469" y1="233.041" y2="233.041"/><text fill="#000000" font-family="sans-serif" font-size="13" font-weight="bold" lengthAdjust="spacing" textLength="35.3628" x="265.2307" y="228.2988">[005]</text><text fill="#000000" font-family="sans-serif" font-size="13" lengthAdjust="spacing" textLength="118.3774" x="304.5935" y="228.2988">Add pipeline items</text></g><path d="M483,213.7305 L483,238.7305 L712,238.7305 L712,223.7305 L702,213.7305 L483,213.7305" fill="#FFFACD" style="stroke:#181818;stroke-width:0.5;"/><path d="M702,213.7305 L702,223.7305 L712,223.7305 L702,213.7305" fill="#FFFACD" style="stroke:#181818;stroke-width:0.5;"/><text fill="#000000" font-family="sans-serif" font-size="13" lengthAdjust="spacing" textLength="208.457" x="489" y="231.2988">Items created from configuration</text><g class="message" data-participant-1="Pipeline" data-participant-2="Connector"><polygon fill="#4A90E2" points="821.6748,264.3516,831.6748,268.3516,821.6748,272.3516,825.6748,268.3516" style="stroke:#4A90E2;stroke-width:1;"/><line style="stroke:#4A90E2;stroke-width:1;" x1="478.5469" x2="827.6748" y1="268.3516" y2="268.3516"/><text fill="#000000" font-family="sans-serif" font-size="13" font-weight="bold" lengthAdjust="spacing" textLength="35.3628" x="578.853" y="263.6094">[006]</text><text fill="#000000" font-family="sans-serif" font-size="13" lengthAdjust="spacing" textLength="115.1528" x="618.2158" y="263.6094">Execute processor</text></g><path d="M848,249.041 L848,274.041 L1063,274.041 L1063,259.041 L1053,249.041 L848,249.041" fill="#FFF8E1" style="stroke:#181818;stroke-width:0.5;"/><path d="M1053,249.041 L1053,259.041 L1063,259.041 L1053,249.041" fill="#FFF8E1" style="stroke:#181818;stroke-width:0.5;"/><text fill="#000000" font-family="sans-serif" font-size="13" lengthAdjust="spacing" textLength="194.2192" x="854" y="266.6094">Step 1: Connect to data source</text><g class="message" data-participant-1="Connector" data-participant-2="Pipeline"><polygon fill="#4A90E2" points="489.5469,296.6621,479.5469,300.6621,489.5469,304.6621,485.5469,300.6621" style="stroke:#4A90E2;stroke-width:1;"/><line style="stroke:#4A90E2;stroke-width:1;stroke-dasharray:2.0,2.0;" x1="483.5469" x2="837.6748" y1="300.6621" y2="300.6621"/><text fill="#000000" font-family="sans-serif" font-size="13" font-weight="bold" lengthAdjust="spacing" textLength="35.3628" x="577.3096" y="295.9199">[007]</text><text fill="#000000" font-family="sans-serif" font-size="13" lengthAdjust="spacing" textLength="123.2397" x="616.6724" y="295.9199">Return client object</text></g><g class="message" data-participant-1="Pipeline" data-participant-2="Pipeline"><line style="stroke:#4A90E2;stroke-width:1;" x1="483.5469" x2="525.5469" y1="329.9727" y2="329.9727"/><line style="stroke:#4A90E2;stroke-width:1;" x1="525.5469" x2="525.5469" y1="329.9727" y2="342.9727"/><line style="stroke:#4A90E2;stroke-width:1;" x1="484.5469" x2="525.5469" y1="342.9727" y2="342.9727"/><polygon fill="#4A90E2" points="494.5469,338.9727,484.5469,342.9727,494.5469,346.9727,490.5469,342.9727" style="stroke:#4A90E2;stroke-width:1;"/><text fill="#000000" font-family="sans-serif" font-size="13" font-weight="bold" lengthAdjust="spacing" textLength="35.3628" x="490.5469" y="325.2305">[008]</text><text fill="#000000" font-family="sans-serif" font-size="13" lengthAdjust="spacing" textLength="179.6704" x="529.9097" y="325.2305">Forward result to Dispatcher</text></g><g class="message" data-participant-1="Pipeline" data-participant-2="Dispatcher"><polygon fill="#4A90E2" points="921.6255,401.2832,931.6255,405.2832,921.6255,409.2832,925.6255,405.2832" style="stroke:#4A90E2;stroke-width:1;"/><line style="stroke:#4A90E2;stroke-width:1;" x1="478.5469" x2="927.6255" y1="405.2832" y2="405.2832"/><text fill="#000000" font-family="sans-serif" font-size="13" font-weight="bold" lengthAdjust="spacing" textLength="35.3628" x="628.8284" y="400.541">[009]</text><text fill="#000000" font-family="sans-serif" font-size="13" lengthAdjust="spacing" textLength="115.1528" x="668.1912" y="400.541">Execute processor</text></g><path d="M948,385.9727 L948,410.9727 L1098,410.9727 L1098,395.9727 L1088,385.9727 L948,385.9727" fill="#F1F8E9" style="stroke:#181818;stroke-width:0.5;"/><path d="M1088,385.9727 L1088,395.9727 L1098,395.9727 L1088,385.9727" fill="#F1F8E9" style="stroke:#181818;stroke-width:0.5;"/><text fill="#000000" font-family="sans-serif" font-size="13" lengthAdjust="spacing" textLength="129.981" x="954" y="403.541">Step 2: Retrieve data</text><g class="message" data-participant-1="Dispatcher" data-participant-2="Pipeline"><polygon fill="#4A90E2" points="489.5469,433.5938,479.5469,437.5938,489.5469,441.5938,485.5469,437.5938" style="stroke:#4A90E2;stroke-width:1;"/><line style="stroke:#4A90E2;stroke-width:1;stroke-dasharray:2.0,2.0;" x1="483.5469" x2="937.6255" y1="437.5938" y2="437.5938"/><text fill="#000000" font-family="sans-serif" font-size="13" font-weight="bold" lengthAdjust="spacing" textLength="35.3628" x="626.5327" y="432.8516">[010]</text><text fill="#000000" font-family="sans-serif" font-size="13" lengthAdjust="spacing" textLength="124.7441" x="665.8955" y="432.8516">Return data records</text></g><g class="message" data-participant-1="Pipeline" data-participant-2="Pipeline"><line style="stroke:#4A90E2;stroke-width:1;" x1="483.5469" x2="525.5469" y1="466.9043" y2="466.9043"/><line style="stroke:#4A90E2;stroke-width:1;" x1="525.5469" x2="525.5469" y1="466.9043" y2="479.9043"/><line style="stroke:#4A90E2;stroke-width:1;" x1="484.5469" x2="525.5469" y1="479.9043" y2="479.9043"/><polygon fill="#4A90E2" points="494.5469,475.9043,484.5469,479.9043,494.5469,483.9043,490.5469,479.9043" style="stroke:#4A90E2;stroke-width:1;"/><text fill="#000000" font-family="sans-serif" font-size="13" font-weight="bold" lengthAdjust="spacing" textLength="35.3628" x="490.5469" y="462.1621">[011]</text><text fill="#000000" font-family="sans-serif" font-size="13" lengthAdjust="spacing" textLength="170.0664" x="529.9097" y="462.1621">Forward result to Serializer</text></g><g class="message" data-participant-1="Pipeline" data-participant-2="Serializer"><polygon fill="#4A90E2" points="1018.2539,538.2148,1028.2539,542.2148,1018.2539,546.2148,1022.2539,542.2148" style="stroke:#4A90E2;stroke-width:1;"/><line style="stroke:#4A90E2;stroke-width:1;" x1="478.5469" x2="1024.2539" y1="542.2148" y2="542.2148"/><text fill="#000000" font-family="sans-serif" font-size="13" font-weight="bold" lengthAdjust="spacing" textLength="35.3628" x="677.1426" y="537.4727">[012]</text><text fill="#000000" font-family="sans-serif" font-size="13" lengthAdjust="spacing" textLength="115.1528" x="716.5054" y="537.4727">Execute processor</text></g><path d="M1045,522.9043 L1045,547.9043 L1210,547.9043 L1210,532.9043 L1200,522.9043 L1045,522.9043" fill="#F8F4FF" style="stroke:#181818;stroke-width:0.5;"/><path d="M1200,522.9043 L1200,532.9043 L1210,532.9043 L1200,522.9043" fill="#F8F4FF" style="stroke:#181818;stroke-width:0.5;"/><text fill="#000000" font-family="sans-serif" font-size="13" lengthAdjust="spacing" textLength="144.9995" x="1051" y="540.4727">Step 3: Transform data</text><g class="message" data-participant-1="Serializer" data-participant-2="Pipeline"><polygon fill="#4A90E2" points="489.5469,570.5254,479.5469,574.5254,489.5469,578.5254,485.5469,574.5254" style="stroke:#4A90E2;stroke-width:1;"/><line style="stroke:#4A90E2;stroke-width:1;stroke-dasharray:2.0,2.0;" x1="483.5469" x2="1034.2539" y1="574.5254" y2="574.5254"/><text fill="#000000" font-family="sans-serif" font-size="13" font-weight="bold" lengthAdjust="spacing" textLength="35.3628" x="659.6633" y="569.7832">[013]</text><text fill="#000000" font-family="sans-serif" font-size="13" lengthAdjust="spacing" textLength="155.1113" x="699.0261" y="569.7832">Return transformed data</text></g><g class="message" data-participant-1="Pipeline" data-participant-2="Pipeline"><line style="stroke:#4A90E2;stroke-width:1;" x1="483.5469" x2="525.5469" y1="603.8359" y2="603.8359"/><line style="stroke:#4A90E2;stroke-width:1;" x1="525.5469" x2="525.5469" y1="603.8359" y2="616.8359"/><line style="stroke:#4A90E2;stroke-width:1;" x1="484.5469" x2="525.5469" y1="616.8359" y2="616.8359"/><polygon fill="#4A90E2" points="494.5469,612.8359,484.5469,616.8359,494.5469,620.8359,490.5469,616.8359" style="stroke:#4A90E2;stroke-width:1;"/><text fill="#000000" font-family="sans-serif" font-size="13" font-weight="bold" lengthAdjust="spacing" textLength="35.3628" x="490.5469" y="599.0938">[014]</text><text fill="#000000" font-family="sans-serif" font-size="13" lengthAdjust="spacing" textLength="165.9658" x="529.9097" y="599.0938">Forward result to Exporter</text></g><g class="message" data-participant-1="Pipeline" data-participant-2="Exporter"><polygon fill="#4A90E2" points="1106.6519,675.1465,1116.6519,679.1465,1106.6519,683.1465,1110.6519,679.1465" style="stroke:#4A90E2;stroke-width:1;"/><line style="stroke:#4A90E2;stroke-width:1;" x1="478.5469" x2="1112.6519" y1="679.1465" y2="679.1465"/><text fill="#000000" font-family="sans-serif" font-size="13" font-weight="bold" lengthAdjust="spacing" textLength="35.3628" x="721.3416" y="674.4043">[015]</text><text fill="#000000" font-family="sans-serif" font-size="13" lengthAdjust="spacing" textLength="115.1528" x="760.7043" y="674.4043">Execute processor</text></g><path d="M1133,659.8359 L1133,684.8359 L1274,684.8359 L1274,669.8359 L1264,659.8359 L1133,659.8359" fill="#FFF9E6" style="stroke:#181818;stroke-width:0.5;"/><path d="M1264,659.8359 L1264,669.8359 L1274,669.8359 L1264,659.8359" fill="#FFF9E6" style="stroke:#181818;stroke-width:0.5;"/><text fill="#000000" font-family="sans-serif" font-size="13" lengthAdjust="spacing" textLength="120.7324" x="1139" y="677.4043">Step 4: Export data</text><g class="message" data-participant-1="Exporter" data-participant-2="Pipeline"><polygon fill="#4A90E2" points="489.5469,707.457,479.5469,711.457,489.5469,715.457,485.5469,711.457" style="stroke:#4A90E2;stroke-width:1;"/><line style="stroke:#4A90E2;stroke-width:1;stroke-dasharray:2.0,2.0;" x1="483.5469" x2="1122.6519" y1="711.457" y2="711.457"/><text fill="#000000" font-family="sans-serif" font-size="13" font-weight="bold" lengthAdjust="spacing" textLength="35.3628" x="716.5195" y="706.7148">[016]</text><text fill="#000000" font-family="sans-serif" font-size="13" lengthAdjust="spacing" textLength="129.7969" x="755.8823" y="706.7148">Return export status</text></g><g class="message" data-participant-1="Pipeline" data-participant-2="CLI"><polygon fill="#4A90E2" points="230.6548,736.7676,220.6548,740.7676,230.6548,744.7676,226.6548,740.7676" style="stroke:#4A90E2;stroke-width:1;"/><line style="stroke:#4A90E2;stroke-width:1;stroke-dasharray:2.0,2.0;" x1="224.6548" x2="472.5469" y1="740.7676" y2="740.7676"/><text fill="#000000" font-family="sans-serif" font-size="13" font-weight="bold" lengthAdjust="spacing" textLength="35.3628" x="234.1548" y="736.0254">[017]</text><text fill="#000000" font-family="sans-serif" font-size="13" lengthAdjust="spacing" textLength="185.5293" x="273.5176" y="736.0254">Pipeline execution completed</text></g><g class="message" data-participant-1="CLI" data-participant-2="User"><polygon fill="#4A90E2" points="35.396,766.0781,25.396,770.0781,35.396,774.0781,31.396,770.0781" style="stroke:#4A90E2;stroke-width:1;"/><line style="stroke:#4A90E2;stroke-width:1;stroke-dasharray:2.0,2.0;" x1="29.396" x2="213.6548" y1="770.0781" y2="770.0781"/><text fill="#000000" font-family="sans-serif" font-size="13" font-weight="bold" lengthAdjust="spacing" textLength="35.3628" x="54.4646" y="765.3359">[018]</text><text fill="#000000" font-family="sans-serif" font-size="13" lengthAdjust="spacing" textLength="90.7588" x="93.8274" y="765.3359">Output results</text></g><!--SRC=[fPHRQzim5CVV_IaEsNF1YPFMCQFW-0A5Z9LrUnfxKEsJHAiZURBShXlxxfDa-LfJ2ir34ad_S_lfw5GFb9L4a3CKbA5yBX6ua2VkLDr1XRzgP1b-mgeYHmmBUcIG8PCePbJmrm7r2ONWJn4lk80Fwt3h9gjcEvDSxBZ8KTZ3LUGb6zSSxka1zogBqVakZhpeQdnEieUZu3NBhIRrqsqQ6etvkYL2qeoMXCcHBs-ztcwI5v8NxindAaivatVokK3OyIBlWpKbJNqaVhfEurumiVxdE4Hlm-9RXM81f0BzfxCh-xYmYFOtHg5-bM2PRj9aBBYb9UhhCwfsOUfOHT745sS7UeGlI78Rr-xeo9l4Vw5cgFDibSrAkqxSv78iZcbL4fcThDz-EU_x3WKb1VrZvVrIULSjaMx6ykHtgHhJYjk5gT5BN4MpbfpLvtkrj_XuV_tTTTqV2ySmlRZMv0BuKZDuel84H1phi-hVIjy1VIGI6xJ-CbwhDdBqGXiPC07iEScXRAbcPdTWQV65c_Wol7Biyg8BYh8MhBNASMBN1MjlBO18e3xl0b9MIQ8ULXzoUCE9wwzcd8Jv86KgyLmvZ2jJGOydQQY5KHp0ZJw1p4JCuI3usMPQ2o8fPuxJnMg0DFSVg0l0hDPP2fwfiS3524ZV9U5kkvn6zfDb07SIIr2_LWsIGquaWOhNGjNQExaOrTNYBAYwF-3tFvLeGhMn6sVUEqYvU28Y1u5LNPYmVP_E4bx7hfSEGxHdumYzbrVX31-5xPWHdQMYixLqLgPSGV4H3HjdO3nBnG0KcAcHLmqp7bJuPYhzStmFbTxBgrI6RpzAjbxiZwdecPXQAbu0NmLXrO6BSuDbO3sBHRPorUB6O93seCmtesc7ptl0j3vUnJASSb7akzE7j4qkBPHrOCLDWPtXB0zib6ggo7hK9rrXWrJRETRjeCbNpGOrASvbWMfmp9ThPf8orpCuWC-rB6jfAOwYAftp7m00]--></g></svg>