<svg xmlns="http://www.w3.org/2000/svg" xmlns:xlink="http://www.w3.org/1999/xlink" contentStyleType="text/css" data-diagram-type="DESCRIPTION" height="484px" preserveAspectRatio="none" style="width:1147px;height:484px;background:#FDFDFD;" version="1.1" viewBox="0 0 1147 484" width="1147px" zoomAndPan="magnify"><defs/><g><rect fill="#FDFDFD" height="484" style="stroke:none;stroke-width:1;" width="1147" x="0" y="0"/><!--cluster Pipeline Module--><g class="cluster" data-entity="Pipeline Module" data-source-line="4" data-uid="ent0002" id="cluster_Pipeline Module"><path d="M330.05,112.4584 L445.6613,112.4584 A3.75,3.75 0 0 1 448.1613,114.9584 L455.1613,134.9466 L698.05,134.9466 A2.5,2.5 0 0 1 700.55,137.4466 L700.55,346.3484 A2.5,2.5 0 0 1 698.05,348.8484 L330.05,348.8484 A2.5,2.5 0 0 1 327.55,346.3484 L327.55,114.9584 A2.5,2.5 0 0 1 330.05,112.4584" fill="none" style="stroke:#000000;stroke-width:1.5;"/><line style="stroke:#000000;stroke-width:1.5;" x1="327.55" x2="455.1613" y1="134.9466" y2="134.9466"/><text fill="#000000" font-family="sans-serif" font-size="14" font-weight="bold" lengthAdjust="spacing" textLength="114.6113" x="331.55" y="127.9935">Pipeline Module</text></g><!--entity runner--><g class="entity" data-entity="runner" data-source-line="5" data-uid="ent0003" id="entity_runner"><rect fill="#E3F2FD" height="46.4883" rx="2.5" ry="2.5" style="stroke:#181818;stroke-width:0.5;" width="145.8545" x="437.62" y="286.3584"/><rect fill="#E3F2FD" height="10" style="stroke:#181818;stroke-width:0.5;" width="15" x="563.4745" y="291.3584"/><rect fill="#E3F2FD" height="2" style="stroke:#181818;stroke-width:0.5;" width="4" x="561.4745" y="293.3584"/><rect fill="#E3F2FD" height="2" style="stroke:#181818;stroke-width:0.5;" width="4" x="561.4745" y="297.3584"/><text fill="#000000" font-family="sans-serif" font-size="14" lengthAdjust="spacing" textLength="105.8545" x="452.62" y="319.8935">Pipeline Runner</text></g><!--entity items--><g class="entity" data-entity="items" data-source-line="6" data-uid="ent0004" id="entity_items"><rect fill="#E8F5E8" height="46.4883" rx="2.5" ry="2.5" style="stroke:#181818;stroke-width:0.5;" width="142.4912" x="343.3" y="147.4584"/><rect fill="#E8F5E8" height="10" style="stroke:#181818;stroke-width:0.5;" width="15" x="465.7912" y="152.4584"/><rect fill="#E8F5E8" height="2" style="stroke:#181818;stroke-width:0.5;" width="4" x="463.7912" y="154.4584"/><rect fill="#E8F5E8" height="2" style="stroke:#181818;stroke-width:0.5;" width="4" x="463.7912" y="158.4584"/><text fill="#000000" font-family="sans-serif" font-size="14" lengthAdjust="spacing" textLength="102.4912" x="358.3" y="180.9935">Item Collection</text></g><!--entity cli--><g class="entity" data-entity="cli" data-source-line="7" data-uid="ent0005" id="entity_cli"><rect fill="#FFF3E0" height="46.4883" rx="2.5" ry="2.5" style="stroke:#181818;stroke-width:0.5;" width="164.1885" x="520.45" y="147.4584"/><rect fill="#FFF3E0" height="10" style="stroke:#181818;stroke-width:0.5;" width="15" x="664.6385" y="152.4584"/><rect fill="#FFF3E0" height="2" style="stroke:#181818;stroke-width:0.5;" width="4" x="662.6385" y="154.4584"/><rect fill="#FFF3E0" height="2" style="stroke:#181818;stroke-width:0.5;" width="4" x="662.6385" y="158.4584"/><text fill="#000000" font-family="sans-serif" font-size="14" lengthAdjust="spacing" textLength="124.1885" x="535.45" y="180.9935">Data Ingestion CLI</text></g><!--entity config--><g class="entity" data-entity="config" data-source-line="10" data-uid="ent0006" id="entity_config"><path d="M547.1919,13.2797 C550.3819,8.1954 554.5664,7.9299 558.5174,12.3755 C562.3471,7.2473 565.491,8.4936 568.4749,13.2293 C572.081,6 576.2953,6.7542 581.4599,11.5458 C585.2323,6.6923 589.2823,7.7527 591.5695,13.0281 C594.8837,7.6493 601.2332,7.3314 604.6409,12.9165 C608.1066,7.4701 612.0543,7.4171 615.7179,12.7124 C619.1519,6.9809 624.6211,8.1448 627.6665,13.1451 C630.082,8.2965 635.5283,8.0428 638.636,12.3124 C642.8741,7.3697 646.3315,7.7657 649.7345,13.205 C652.9346,7.001 658.4417,7.3826 661.4047,13.4309 C667.6727,16.2528 667.0691,20.213 663.1015,24.5911 C669.5345,28.0007 669.5258,32.4382 663.8323,36.5865 C668.7949,41.1117 667.2515,44.9603 661.9418,47.7451 C668.4698,51.6915 667.259,57.6736 661.5316,61.2476 C658.534,67.2133 654.0833,67.8973 650.336,61.9522 C647.3027,69.2623 641.4831,68.5397 637.3481,63.0721 C635.4326,67.8816 630.372,68.8839 626.9923,64.7716 C622.6178,71.3355 618.2484,71.5022 614.2728,64.4004 C612.609,69.7099 608.2632,71.6036 603.9194,67.2811 C598.4024,72.9933 594.095,72.1401 591.1298,64.7838 C588.1773,68.7663 583.8275,69.3034 581.3932,64.2268 C577.0079,69.4505 571.2763,68.9173 568.6871,62.2994 C564.5228,66.6919 560.3122,66.463 557.473,60.8188 C553.6839,65.9582 547.8389,66.0605 545.1882,59.6119 C538.8064,58.432 537.6738,53.406 542.376,49.2251 C537.2897,46.2665 536.2113,42.0992 540.8083,37.8107 C536.3091,33.394 537.3961,28.2822 543.0754,25.7842 C537.9059,20.5401 539.2999,14.224 547.1919,13.2797" fill="#F5F5F5" style="stroke:#181818;stroke-width:0.5;"/><text fill="#000000" font-family="sans-serif" font-size="14" lengthAdjust="spacing" textLength="33.5713" x="552.17" y="32.9835">Yaml</text><text fill="#000000" font-family="sans-serif" font-size="14" lengthAdjust="spacing" textLength="100.7549" x="552.17" y="49.4718">Configurations</text></g><!--entity source--><g class="entity" data-entity="source" data-source-line="11" data-uid="ent0007" id="entity_source"><polygon fill="#E1F5FE" points="719.63,144.2184,855.464,144.2184,865.464,170.7066,855.464,197.1949,719.63,197.1949,729.63,170.7066" style="stroke:#181818;stroke-width:0.5;"/><text fill="#000000" font-family="sans-serif" font-size="14" lengthAdjust="spacing" textLength="105.834" x="739.63" y="167.7535">Read CLI Inputs</text><text fill="#000000" font-family="sans-serif" font-size="14" lengthAdjust="spacing" textLength="76.7744" x="739.63" y="184.2418">parameters</text></g><!--entity output--><g class="entity" data-entity="output" data-source-line="12" data-uid="ent0008" id="entity_output"><path d="M461.7,415.2184 C461.7,405.2184 510.5486,405.2184 510.5486,405.2184 C510.5486,405.2184 559.3973,405.2184 559.3973,415.2184 L559.3973,457.1949 C559.3973,467.1949 510.5486,467.1949 510.5486,467.1949 C510.5486,467.1949 461.7,467.1949 461.7,457.1949 L461.7,415.2184" fill="#E0F2F1" style="stroke:#181818;stroke-width:0.5;"/><path d="M461.7,415.2184 C461.7,425.2184 510.5486,425.2184 510.5486,425.2184 C510.5486,425.2184 559.3973,425.2184 559.3973,415.2184" fill="none" style="stroke:#181818;stroke-width:0.5;"/><text fill="#000000" font-family="sans-serif" font-size="14" lengthAdjust="spacing" textLength="47.5371" x="471.7" y="442.7535">Output</text><text fill="#000000" font-family="sans-serif" font-size="14" lengthAdjust="spacing" textLength="77.6973" x="471.7" y="459.2418">Destination</text></g><g class="entity" data-entity="GMN14" data-source-line="21" data-uid="ent0015" id="entity_GMN14"><path d="M6,273.9784 L6,345.2205 A0,0 0 0 0 6,345.2205 L311.0967,345.2205 A0,0 0 0 0 311.0967,345.2205 L311.0967,313.1984 L437.5,309.1984 L311.0967,305.1984 L311.0967,283.9784 L301.0967,273.9784 L6,273.9784 A0,0 0 0 0 6,273.9784" fill="#F0F8FF" style="stroke:#181818;stroke-width:0.5;"/><path d="M301.0967,273.9784 L301.0967,283.9784 L311.0967,283.9784 L301.0967,273.9784" fill="#F0F8FF" style="stroke:#181818;stroke-width:0.5;"/><text fill="#000000" font-family="sans-serif" font-size="13" lengthAdjust="spacing" textLength="284.0967" x="12" y="291.5467">&#128640; The Pipeline Runner orchestrates the flow</text><text fill="#000000" font-family="sans-serif" font-size="13" lengthAdjust="spacing" textLength="254.9473" x="20.2266" y="306.8573">of data through the pipeline. It manages</text><text fill="#000000" font-family="sans-serif" font-size="13" lengthAdjust="spacing" textLength="246.8286" x="20.2266" y="322.1678">the execution of items and handles the</text><text fill="#000000" font-family="sans-serif" font-size="13" lengthAdjust="spacing" textLength="113.2422" x="20.2266" y="337.4784">collection of data.</text></g><g class="entity" data-entity="GMN17" data-source-line="28" data-uid="ent0018" id="entity_GMN17"><path d="M900.87,127.4284 L900.87,213.9811 L1140.2177,213.9811 L1140.2177,137.4284 L1130.2177,127.4284 L900.87,127.4284" fill="#F1F8E9" style="stroke:#181818;stroke-width:0.5;"/><path d="M1130.2177,127.4284 L1130.2177,137.4284 L1140.2177,137.4284 L1130.2177,127.4284" fill="#F1F8E9" style="stroke:#181818;stroke-width:1;"/><text fill="#000000" font-family="sans-serif" font-size="13" lengthAdjust="spacing" textLength="218.3477" x="906.87" y="144.9967">&#128230; Items are processing units like:</text><text fill="#000000" font-family="sans-serif" font-size="13" lengthAdjust="spacing" textLength="74.4834" x="915.0966" y="160.3073">- connector</text><text fill="#000000" font-family="sans-serif" font-size="13" lengthAdjust="spacing" textLength="77.7144" x="915.0966" y="175.6178">- dispatcher</text><text fill="#000000" font-family="sans-serif" font-size="13" lengthAdjust="spacing" textLength="69.291" x="915.0966" y="190.9284">- serializer</text><text fill="#000000" font-family="sans-serif" font-size="13" lengthAdjust="spacing" textLength="65.7617" x="915.0966" y="206.2389">- exporter</text></g><!--link config to cli--><g class="link" data-entity-1="config" data-entity-2="cli" data-source-line="14" data-uid="lnk9" id="link_config_cli"><path d="M602.55,67.8784 C602.55,92.1584 602.55,119.0284 602.55,141.0084" fill="none" id="config-to-cli" style="stroke:#181818;stroke-width:1;"/><polygon fill="#181818" points="602.55,147.0084,606.55,138.0084,602.55,142.0084,598.55,138.0084,602.55,147.0084" style="stroke:#181818;stroke-width:1;"/></g><!--link cli to runner--><g class="link" data-entity-1="cli" data-entity-2="runner" data-source-line="15" data-uid="lnk10" id="link_cli_runner"><path d="M551.96,194.2684 C551.96,219.8084 551.96,254.3384 551.96,279.9184" fill="none" id="cli-to-runner" style="stroke:#181818;stroke-width:1;"/><polygon fill="#181818" points="551.96,285.9184,555.96,276.9184,551.96,280.9184,547.96,276.9184,551.96,285.9184" style="stroke:#181818;stroke-width:1;"/></g><!--link items to runner--><g class="link" data-entity-1="items" data-entity-2="runner" data-source-line="16" data-uid="lnk11" id="link_items_runner"><path d="M453.68,194.2684 C453.68,219.8084 453.68,254.3384 453.68,279.9184" fill="none" id="items-to-runner" style="stroke:#181818;stroke-width:1;"/><polygon fill="#181818" points="453.68,285.9184,457.68,276.9184,453.68,280.9184,449.68,276.9184,453.68,285.9184" style="stroke:#181818;stroke-width:1;"/></g><!--link source to runner--><g class="link" data-entity-1="source" data-entity-2="runner" data-source-line="17" data-uid="lnk12" id="link_source_runner"><path d="M792.55,197.4084 C792.55,237.6484 792.55,309.1984 792.55,309.1984 C792.55,309.1984 673.46,309.1984 589.9,309.1984" fill="none" id="source-to-runner" style="stroke:#181818;stroke-width:1;"/><polygon fill="#181818" points="583.9,309.1984,592.9,313.1984,588.9,309.1984,592.9,305.1984,583.9,309.1984" style="stroke:#181818;stroke-width:1;"/></g><!--link runner to output--><g class="link" data-entity-1="runner" data-entity-2="output" data-source-line="18" data-uid="lnk13" id="link_runner_output"><path d="M510.55,333.1184 C510.55,353.4284 510.55,376.9284 510.55,399.1684" fill="none" id="runner-to-output" style="stroke:#181818;stroke-width:1;"/><polygon fill="#181818" points="510.55,405.1684,514.55,396.1684,510.55,400.1684,506.55,396.1684,510.55,405.1684" style="stroke:#181818;stroke-width:1;"/></g><!--link items to GMN17--><g class="link" data-entity-1="items" data-entity-2="GMN17" data-source-line="28" data-uid="lnk19" id="link_items_GMN17"><path d="M469.74,194.2884 C469.74,200.3484 469.74,205.1984 469.74,205.1984 C469.74,205.1984 738.66,205.1984 900.69,205.1984" fill="none" id="items-GMN17" style="stroke:#181818;stroke-width:1;stroke-dasharray:7.0,7.0;"/></g><!--SRC=[NLB1ZjCm4BtxAqRfkQjsLoiL3bpQM8gq2BJYWYW7Rp9DhBfsP3jY0I7n3zouSEFx-0IUxMnO4KkHFNxlpPiPXxEse_BgGaPRZfz79kVZu4HOBXvKU-wzcsotTyPvMib3MaACk50zK_LMZvpezDfra-6AlWh2zs69tq_Milz8Af3FMrhLD_8Q8XdNHBuGn0stKJkRSHgn0DXEtjQx0ZkegAYnFOU4elrTav6jqV0avKsz4T-4Q8sREghUguivshsp9zrFNYL6g38yXy2uJKkCthKS0bNthBgaYGpZ5CEnLC-HVU45D_cMuMWBNYqwc7bG0TM_cI88Htj8lcpEb0aknq7OeD8jZ9N4w_MhP5aassbV6Y9AlSy2SxvdaRbrALAqXR0kCXa-HNAdfRLo8tTIYZ-_VdwdTmFJVsF0WDi1Nj4K3XG1E1dt2Is6HAeA8Kox7_BLE7Elg8bqKHRp3e2cAtxaTigJ0B7OLxQZ0JzJX05ibwa-oLy91YePd-rxtG_ndyPARkMkVW7xFtvJKsGzZ9GvQTlJP7KCUAzdVeaCwpHHYnpEvrEdmwWYAYp7m5uhex_CHtuSyRvnM4py1G00]--></g></svg>