<svg xmlns="http://www.w3.org/2000/svg" xmlns:xlink="http://www.w3.org/1999/xlink" contentStyleType="text/css" data-diagram-type="DESCRIPTION" height="346px" preserveAspectRatio="none" style="width:473px;height:346px;background:#FDFDFD;" version="1.1" viewBox="0 0 473 346" width="473px" zoomAndPan="magnify"><defs/><g><rect fill="#FDFDFD" height="346" style="stroke:none;stroke-width:1;" width="473" x="0" y="0"/><!--cluster Serializer Module--><g class="cluster" data-entity="Serializer Module" data-source-line="4" data-uid="ent0002" id="cluster_Serializer Module"><path d="M8.5,6 L134.2832,6 A3.75,3.75 0 0 1 136.7832,8.5 L143.7832,28.4883 L185.5,28.4883 A2.5,2.5 0 0 1 188,30.9883 L188,228.1 A2.5,2.5 0 0 1 185.5,230.6 L8.5,230.6 A2.5,2.5 0 0 1 6,228.1 L6,8.5 A2.5,2.5 0 0 1 8.5,6" fill="none" style="stroke:#000000;stroke-width:1.5;"/><line style="stroke:#000000;stroke-width:1.5;" x1="6" x2="143.7832" y1="28.4883" y2="28.4883"/><text fill="#000000" font-family="sans-serif" font-size="14" font-weight="bold" lengthAdjust="spacing" textLength="124.7832" x="10" y="21.5352">Serializer Module</text></g><!--entity serializer--><g class="entity" data-entity="serializer" data-source-line="5" data-uid="ent0003" id="entity_serializer"><rect fill="#E3F2FD" height="46.4883" rx="2.5" ry="2.5" style="stroke:#181818;stroke-width:0.5;" width="102.4941" x="69.75" y="168.11"/><rect fill="#E3F2FD" height="10" style="stroke:#181818;stroke-width:0.5;" width="15" x="152.2441" y="173.11"/><rect fill="#E3F2FD" height="2" style="stroke:#181818;stroke-width:0.5;" width="4" x="150.2441" y="175.11"/><rect fill="#E3F2FD" height="2" style="stroke:#181818;stroke-width:0.5;" width="4" x="150.2441" y="179.11"/><text fill="#000000" font-family="sans-serif" font-size="14" lengthAdjust="spacing" textLength="62.4941" x="84.75" y="201.6452">Serializer</text></g><!--entity converters--><g class="entity" data-entity="converters" data-source-line="6" data-uid="ent0004" id="entity_converters"><rect fill="#E8F5E8" height="46.4883" rx="2.5" ry="2.5" style="stroke:#181818;stroke-width:0.5;" width="150.8584" x="21.57" y="41"/><rect fill="#E8F5E8" height="10" style="stroke:#181818;stroke-width:0.5;" width="15" x="152.4284" y="46"/><rect fill="#E8F5E8" height="2" style="stroke:#181818;stroke-width:0.5;" width="4" x="150.4284" y="48"/><rect fill="#E8F5E8" height="2" style="stroke:#181818;stroke-width:0.5;" width="4" x="150.4284" y="52"/><text fill="#000000" font-family="sans-serif" font-size="14" lengthAdjust="spacing" textLength="110.8584" x="36.57" y="74.5352">Type Converters</text></g><!--entity config--><g class="entity" data-entity="config" data-source-line="9" data-uid="ent0005" id="entity_config"><path d="M217.6419,41.5813 C220.8319,36.497 225.0164,36.2315 228.9674,40.6771 C232.7971,35.5489 235.941,36.7952 238.9249,41.5309 C242.531,34.3016 246.7453,35.0559 251.9099,39.8474 C255.6823,34.9939 259.7323,36.0544 262.0195,41.3297 C265.3337,35.9509 271.6832,35.633 275.0909,41.2182 C278.5566,35.7717 282.5043,35.7187 286.1679,41.0141 C289.6019,35.2825 295.0711,36.4464 298.1165,41.4467 C300.532,36.5982 305.9783,36.3445 309.086,40.614 C313.3241,35.6713 316.7815,36.0674 320.1845,41.5067 C323.3846,35.3026 328.8917,35.6843 331.8547,41.7326 C338.1227,44.5544 337.5191,48.5147 333.5515,52.8928 C339.9845,56.3023 339.9758,60.7398 334.2823,64.8882 C339.2449,69.4134 337.7015,73.2619 332.3918,76.0468 C338.9198,79.9931 337.709,85.9752 331.9816,89.5492 C328.984,95.515 324.5333,96.199 320.786,90.2538 C317.7527,97.5639 311.9331,96.8413 307.7981,91.3737 C305.8826,96.1832 300.822,97.1856 297.4423,93.0733 C293.0678,99.6371 288.6984,99.8038 284.7228,92.702 C283.059,98.0116 278.7132,99.9053 274.3694,95.5827 C268.8524,101.2949 264.545,100.4417 261.5798,93.0854 C258.6273,97.0679 254.2775,97.605 251.8432,92.5284 C247.4579,97.7521 241.7263,97.219 239.1371,90.6011 C234.9728,94.9935 230.7622,94.7646 227.923,89.1205 C224.1339,94.2598 218.2889,94.3621 215.6382,87.9135 C209.2564,86.7337 208.1238,81.7077 212.826,77.5268 C207.7397,74.5682 206.6613,70.4009 211.2583,66.1123 C206.7591,61.6957 207.8461,56.5838 213.5254,54.0858 C208.3559,48.8417 209.7499,42.5256 217.6419,41.5813" fill="#F5F5F5" style="stroke:#181818;stroke-width:0.5;"/><text fill="#000000" font-family="sans-serif" font-size="14" lengthAdjust="spacing" textLength="33.5713" x="222.62" y="61.2852">Yaml</text><text fill="#000000" font-family="sans-serif" font-size="14" lengthAdjust="spacing" textLength="100.7549" x="222.62" y="77.7734">Configurations</text></g><!--entity input--><g class="entity" data-entity="input" data-source-line="10" data-uid="ent0006" id="entity_input"><path d="M373.51,43.25 C373.51,33.25 415.0032,33.25 415.0032,33.25 C415.0032,33.25 456.4963,33.25 456.4963,43.25 L456.4963,85.2266 C456.4963,95.2266 415.0032,95.2266 415.0032,95.2266 C415.0032,95.2266 373.51,95.2266 373.51,85.2266 L373.51,43.25" fill="#E1F5FE" style="stroke:#181818;stroke-width:0.5;"/><path d="M373.51,43.25 C373.51,53.25 415.0032,53.25 415.0032,53.25 C415.0032,53.25 456.4963,53.25 456.4963,43.25" fill="none" style="stroke:#181818;stroke-width:0.5;"/><text fill="#000000" font-family="sans-serif" font-size="14" lengthAdjust="spacing" textLength="62.9863" x="383.51" y="70.7852">Raw Data</text><text fill="#000000" font-family="sans-serif" font-size="14" lengthAdjust="spacing" textLength="35.458" x="383.51" y="87.2734">Input</text></g><!--entity output--><g class="entity" data-entity="output" data-source-line="11" data-uid="ent0007" id="entity_output"><polygon fill="#FFF3E0" points="57.35,286.97,174.6449,286.97,184.6449,313.4583,174.6449,339.9466,57.35,339.9466,67.35,313.4583" style="stroke:#181818;stroke-width:0.5;"/><text fill="#000000" font-family="sans-serif" font-size="14" lengthAdjust="spacing" textLength="87.2949" x="77.35" y="310.5052">Transformed</text><text fill="#000000" font-family="sans-serif" font-size="14" lengthAdjust="spacing" textLength="54.0996" x="77.35" y="326.9934">Records</text></g><g class="entity" data-entity="GMN12" data-source-line="19" data-uid="ent0013" id="entity_GMN12"><path d="M207.39,155.73 L207.39,186.95 L172.72,190.95 L207.39,194.95 L207.39,226.9722 A0,0 0 0 0 207.39,226.9722 L446.6171,226.9722 A0,0 0 0 0 446.6171,226.9722 L446.6171,165.73 L436.6171,155.73 L207.39,155.73 A0,0 0 0 0 207.39,155.73" fill="#F0F8FF" style="stroke:#181818;stroke-width:0.5;"/><path d="M436.6171,155.73 L436.6171,165.73 L446.6171,165.73 L436.6171,155.73" fill="#F0F8FF" style="stroke:#181818;stroke-width:0.5;"/><text fill="#000000" font-family="sans-serif" font-size="13" lengthAdjust="spacing" textLength="218.2271" x="213.39" y="173.2984">&#128260; Applies transformation phases:</text><text fill="#000000" font-family="sans-serif" font-size="13" lengthAdjust="spacing" textLength="137.833" x="221.6166" y="188.6089">- Inline field mapping</text><text fill="#000000" font-family="sans-serif" font-size="13" lengthAdjust="spacing" textLength="170.3521" x="221.6166" y="203.9195">- Derived field calculations</text><text fill="#000000" font-family="sans-serif" font-size="13" lengthAdjust="spacing" textLength="168.0859" x="221.6166" y="219.23">- Constant value additions</text></g><!--link input to serializer--><g class="link" data-entity-1="input" data-entity-2="serializer" data-source-line="13" data-uid="lnk8" id="link_input_serializer"><path d="M410.06,95.46 C410.06,110.76 410.06,125.95 410.06,125.95 C410.06,125.95 146.62,125.95 146.62,125.95 C146.62,125.95 146.62,143.01 146.62,161.74" fill="none" id="input-to-serializer" style="stroke:#181818;stroke-width:1;"/><polygon fill="#181818" points="146.62,167.74,150.62,158.74,146.62,162.74,142.62,158.74,146.62,167.74" style="stroke:#181818;stroke-width:1;"/></g><!--link config to serializer--><g class="link" data-entity-1="config" data-entity-2="serializer" data-source-line="14" data-uid="lnk9" id="link_config_serializer"><path d="M207.21,91.95 C166.13,91.95 121,91.95 121,91.95 C121,91.95 121,132.4 121,161.8" fill="none" id="config-to-serializer" style="stroke:#181818;stroke-width:1;"/><polygon fill="#181818" points="121,167.8,125,158.8,121,162.8,117,158.8,121,167.8" style="stroke:#181818;stroke-width:1;"/></g><!--link converters to serializer--><g class="link" data-entity-1="converters" data-entity-2="serializer" data-source-line="15" data-uid="lnk10" id="link_converters_serializer"><path d="M95.38,87.85 C95.38,110.68 95.38,139.08 95.38,161.87" fill="none" id="converters-to-serializer" style="stroke:#181818;stroke-width:1;"/><polygon fill="#181818" points="95.38,167.87,99.38,158.87,95.38,162.87,91.38,158.87,95.38,167.87" style="stroke:#181818;stroke-width:1;"/></g><!--link serializer to output--><g class="link" data-entity-1="serializer" data-entity-2="output" data-source-line="16" data-uid="lnk11" id="link_serializer_output"><path d="M121,214.9 C121,235.41 121,259.15 121,280.59" fill="none" id="serializer-to-output" style="stroke:#181818;stroke-width:1;"/><polygon fill="#181818" points="121,286.59,125,277.59,121,281.59,117,277.59,121,286.59" style="stroke:#181818;stroke-width:1;"/></g><!--SRC=[PP6_JiCm4CRtUufJEbSgL9Kg1YH4Owa3I-c2ACCrlgHM7TkodI90R3m2Ew_88-0a_GV4I-pVT-VlFeUjCeuyrQYLuVZY6AsF6mlX2DPKR2jl6oDlhROU1sBMBW2N05MCsJrxHLgziiSxAnlD6Ru1fk_nH9wG0eQJS92FnMNgqicMxRstrkpOH_QXqnR7RT9EnIIVmZj0eMqZCNkWMgzCgYXLrNYAofgGxQlIKV8uQHT8YhIca3mkw1bdQRSoS-EQs8bL-vUwNoHj3ixRWaF0REd9XDBwckNABBYmNlRDRHEx0Y74E1y1zFN3uVNPOB1tyF_qCCqVSfP9I_ex08oDZ5vLcuYs_1MS68cf4F3zzVc1DyvfnG7ZmN8N1RfDcZbSfN27E3VjosAfM4kioJbbgWxCKiyTopqfI1UDxfFiS0etH38HTwGRHf9IzP2DnDOT_000]--></g></svg>